<svg width="16" height="20" viewBox="0 0 16 20" fill="none" xmlns="http://www.w3.org/2000/svg">
<path fill-rule="evenodd" clip-rule="evenodd" d="M8 0C8.61335 0 9.11654 0.473981 9.16663 1.07733C12.4909 1.63584 15.0244 4.54005 15.0244 8.03922V15.6863H15.3171C15.6942 15.6863 16 15.9935 16 16.3725C16 16.7516 15.6942 17.0588 15.3171 17.0588H13.0672C12.9664 18.7001 11.6099 20 9.95122 20C8.29254 20 6.93599 18.7001 6.83527 17.0588H0.682927C0.305757 17.0588 0 16.7516 0 16.3725C0 15.9935 0.305757 15.6863 0.682927 15.6863H0.97561V8.03922C0.97561 4.54005 3.50909 1.63584 6.83337 1.07733C6.88346 0.473981 7.38665 0 8 0ZM13.6585 8.03922V15.6863H2.34146V8.03922C2.34146 4.89877 4.87488 2.35294 8 2.35294C11.1251 2.35294 13.6585 4.89877 13.6585 8.03922ZM9.95122 18.6274C9.04731 18.6274 8.3029 17.9412 8.20584 17.0588H11.6966C11.5995 17.9412 10.8551 18.6274 9.95122 18.6274Z" fill="#232A3D"/>
</svg>
