<svg width="16" height="22" viewBox="0 0 16 22" fill="none" xmlns="http://www.w3.org/2000/svg">
<path fill-rule="evenodd" clip-rule="evenodd" d="M12.2723 20.0543L12.8263 14.477C14.7541 13.0069 16 10.6767 16 8.05357C16 3.60571 12.4183 0 8 0C3.58172 0 0 3.60571 0 8.05357C0 10.6767 1.24591 13.0069 3.17368 14.477L3.7277 20.0543C3.83742 21.1588 4.7607 22 5.86339 22H10.1366C11.2393 22 12.1626 21.1588 12.2723 20.0543ZM11.9439 13.4245L11.5274 13.7351L11.2332 16.6964H8.68295L8.68293 15.6608L10.1075 13.8681C10.5732 13.2822 10.3836 12.4133 9.71693 12.0777L7.04613 10.7334L8.56823 8.43493C8.77744 8.119 8.69264 7.69215 8.37882 7.48154C8.06499 7.27092 7.64099 7.35629 7.43177 7.67221L5.78706 10.1558C5.39645 10.7456 5.60776 11.5467 6.23761 11.8637L8.89022 13.1989L7.57362 14.8556C7.40755 15.0646 7.31707 15.3243 7.31708 15.5919L7.3171 16.6964H4.76681L4.47265 13.7351L4.05611 13.4245C2.42168 12.2058 1.36585 10.254 1.36585 8.05357C1.36585 4.3651 4.33606 1.375 8 1.375C11.6639 1.375 14.6341 4.3651 14.6341 8.05357C14.6341 10.254 13.5783 12.2058 11.9439 13.4245ZM5.08678 19.9175L4.9034 18.0714H11.0966L10.9132 19.9175C10.8733 20.3191 10.5376 20.625 10.1366 20.625H5.86339C5.46241 20.625 5.12667 20.3191 5.08678 19.9175Z" fill="#232A3D"/>
</svg>
