<svg width="18" height="18" viewBox="0 0 18 18" fill="none" xmlns="http://www.w3.org/2000/svg">
<path d="M12.8064 6.19374C13.0645 6.45205 13.0645 6.87087 12.8064 7.12918L8.13221 11.8061C7.90616 12.0323 7.5572 12.0606 7.30054 11.891C7.2638 11.8668 7.22907 11.8385 7.19698 11.8064L5.19362 9.80188C4.93546 9.54357 4.93546 9.12475 5.19362 8.86644C5.45179 8.60812 5.87036 8.60812 6.12852 8.86644L7.66443 10.4032L11.8715 6.19374C12.1296 5.93542 12.5482 5.93542 12.8064 6.19374Z" fill="#232A3D"/>
<path fill-rule="evenodd" clip-rule="evenodd" d="M0 9C0 4.02944 4.02944 0 9 0C13.9706 0 18 4.02944 18 9C18 13.9706 13.9706 18 9 18C4.02944 18 0 13.9706 0 9ZM9 1.23288C4.71034 1.23288 1.23288 4.71034 1.23288 9C1.23288 13.2897 4.71034 16.7671 9 16.7671C13.2897 16.7671 16.7671 13.2897 16.7671 9C16.7671 4.71034 13.2897 1.23288 9 1.23288Z" fill="#232A3D"/>
</svg>
