<svg width="18" height="18" viewBox="0 0 18 18" fill="none" xmlns="http://www.w3.org/2000/svg">
<path d="M9 3.45205C8.65955 3.45205 8.38356 3.72804 8.38356 4.06849V9.38098L12.6695 11.524C12.974 11.6762 13.3443 11.5528 13.4966 11.2483C13.6488 10.9438 13.5254 10.5735 13.2209 10.4212L9.61644 8.61902V4.06849C9.61644 3.72804 9.34045 3.45205 9 3.45205Z" fill="#232A3D"/>
<path fill-rule="evenodd" clip-rule="evenodd" d="M9 0C4.02944 0 0 4.02944 0 9C0 13.9706 4.02944 18 9 18C13.9706 18 18 13.9706 18 9C18 4.02944 13.9706 0 9 0ZM1.23288 9C1.23288 4.71034 4.71034 1.23288 9 1.23288C13.2897 1.23288 16.7671 4.71034 16.7671 9C16.7671 13.2897 13.2897 16.7671 9 16.7671C4.71034 16.7671 1.23288 13.2897 1.23288 9Z" fill="#232A3D"/>
</svg>
