<svg width="24" height="24" viewBox="0 0 24 24" fill="none" xmlns="http://www.w3.org/2000/svg">
<path d="M12 6.45205C11.6596 6.45205 11.3836 6.72804 11.3836 7.06849V12.381L15.6695 14.524C15.974 14.6762 16.3443 14.5528 16.4966 14.2483C16.6488 13.9438 16.5254 13.5735 16.2209 13.4212L12.6164 11.619V7.06849C12.6164 6.72804 12.3404 6.45205 12 6.45205Z" fill="currentColor"/>
<path fill-rule="evenodd" clip-rule="evenodd" d="M12 3C7.02944 3 3 7.02944 3 12C3 16.9706 7.02944 21 12 21C16.9706 21 21 16.9706 21 12C21 7.02944 16.9706 3 12 3ZM4.23288 12C4.23288 7.71034 7.71034 4.23288 12 4.23288C16.2897 4.23288 19.7671 7.71034 19.7671 12C19.7671 16.2897 16.2897 19.7671 12 19.7671C7.71034 19.7671 4.23288 16.2897 4.23288 12Z" fill="currentColor"/>
</svg>
