<svg width="12" height="12" viewBox="0 0 12 12" fill="none" xmlns="http://www.w3.org/2000/svg">
<path fill-rule="evenodd" clip-rule="evenodd" d="M1.30894 0.343147C1.04224 0.0764473 0.609832 0.0764473 0.343133 0.343147C0.0764339 0.609845 0.0764338 1.04225 0.343133 1.30895L5.03418 6L0.343133 10.691C0.0764334 10.9577 0.0764333 11.3902 0.343133 11.6569C0.609832 11.9236 1.04224 11.9236 1.30894 11.6569L5.99999 6.9658L10.691 11.6569C10.9577 11.9236 11.3901 11.9236 11.6568 11.6569C11.9235 11.3902 11.9235 10.9577 11.6568 10.6911L6.96579 6L11.6568 1.30895C11.9235 1.04225 11.9235 0.609845 11.6568 0.343145C11.3901 0.0764457 10.9577 0.0764483 10.691 0.343146L5.99999 5.0342L1.30894 0.343147Z" fill="#232A3D"/>
</svg>
