<svg width="18" height="18" viewBox="0 0 18 18" fill="none" xmlns="http://www.w3.org/2000/svg">
<path fill-rule="evenodd" clip-rule="evenodd" d="M0.978261 13.0421V18L4.89899 16.9579C6.12905 17.5866 7.52325 17.9412 9 17.9412C13.9706 17.9412 18 13.925 18 8.97062C18 4.01628 13.9706 0 9 0C4.02944 0 0 4.01628 0 8.97062C0 10.4361 0.352696 11.82 0.978261 13.0421ZM2.34783 16.2232V12.7104L2.21673 12.4576C1.67567 11.4144 1.36957 10.2298 1.36957 8.97062C1.36957 4.7702 4.78583 1.36509 9 1.36509C13.2142 1.36509 16.6304 4.7702 16.6304 8.97062C16.6304 13.171 13.2142 16.5761 9 16.5761C7.72248 16.5761 6.52152 16.2641 5.46629 15.7134L5.06115 15.502L2.34783 16.2232Z" fill="#232A3D"/>
</svg>
