<svg width="24" height="24" viewBox="0 0 24 24" fill="none" xmlns="http://www.w3.org/2000/svg">
<path fill-rule="evenodd" clip-rule="evenodd" d="M3.97826 16.0421V21L7.89899 19.9579C9.12905 20.5866 10.5232 20.9412 12 20.9412C16.9706 20.9412 21 16.925 21 11.9706C21 7.01628 16.9706 3 12 3C7.02944 3 3 7.01628 3 11.9706C3 13.4361 3.3527 14.82 3.97826 16.0421ZM5.34783 19.2232V15.7104L5.21673 15.4576C4.67567 14.4144 4.36957 13.2298 4.36957 11.9706C4.36957 7.7702 7.78583 4.36509 12 4.36509C16.2142 4.36509 19.6304 7.7702 19.6304 11.9706C19.6304 16.171 16.2142 19.5761 12 19.5761C10.7225 19.5761 9.52152 19.2641 8.46629 18.7134L8.06115 18.502L5.34783 19.2232Z" fill="currentColor"/>
</svg>
