<svg width="20" height="13" viewBox="0 0 20 13" fill="none" xmlns="http://www.w3.org/2000/svg">
<path fill-rule="evenodd" clip-rule="evenodd" d="M3.90206 6.5C3.90206 7.96325 5.10401 9.14847 6.58561 9.14903H15.3653C17.9245 9.14903 20 7.10144 20 4.57451C20 2.04759 17.9245 0 15.3653 0H6.5857C2.94901 0 0 2.90966 0 6.5C0 10.0903 2.94901 13 6.5857 13H14.8776C15.2817 13 15.6102 12.6766 15.6102 12.2765C15.6102 11.8764 15.2817 11.5529 14.8776 11.5529H6.5857C3.75724 11.5529 1.46522 9.29016 1.46522 6.5C1.46522 3.70984 3.75724 1.44708 6.5857 1.44708H15.3653C17.1163 1.44708 18.5348 2.84777 18.5348 4.57451C18.5348 6.30126 17.1163 7.70195 15.3653 7.70195H6.58585C5.91186 7.70153 5.36728 7.16265 5.36728 6.5C5.36728 5.83735 5.91186 5.29847 6.58585 5.29805H14.8776C15.2817 5.29805 15.6102 4.9746 15.6102 4.57451C15.6102 4.17442 15.2817 3.85097 14.8776 3.85097H6.58561C5.10401 3.85153 3.90206 5.03675 3.90206 6.5Z" fill="#232A3D"/>
</svg>
