<svg width="24" height="24" viewBox="0 0 24 24" fill="none" xmlns="http://www.w3.org/2000/svg">
<path d="M15.8064 9.19374C16.0645 9.45205 16.0645 9.87087 15.8064 10.1292L11.1322 14.8061C10.9062 15.0323 10.5572 15.0606 10.3005 14.891C10.2638 14.8668 10.2291 14.8385 10.197 14.8064L8.19362 12.8019C7.93546 12.5436 7.93546 12.1248 8.19362 11.8664C8.45179 11.6081 8.87036 11.6081 9.12852 11.8664L10.6644 13.4032L14.8715 9.19374C15.1296 8.93542 15.5482 8.93542 15.8064 9.19374Z" fill="currentColor"/>
<path fill-rule="evenodd" clip-rule="evenodd" d="M3 12C3 7.02944 7.02944 3 12 3C16.9706 3 21 7.02944 21 12C21 16.9706 16.9706 21 12 21C7.02944 21 3 16.9706 3 12ZM12 4.23288C7.71034 4.23288 4.23288 7.71034 4.23288 12C4.23288 16.2897 7.71034 19.7671 12 19.7671C16.2897 19.7671 19.7671 16.2897 19.7671 12C19.7671 7.71034 16.2897 4.23288 12 4.23288Z" fill="currentColor"/>
</svg>
