<svg width="18" height="20" viewBox="0 0 18 20" fill="none" xmlns="http://www.w3.org/2000/svg">
<path fill-rule="evenodd" clip-rule="evenodd" d="M1.44156 2.67578C1.44156 1.99621 1.99103 1.44531 2.66883 1.44531H9.48701C10.1648 1.44531 10.7143 1.99621 10.7143 2.67578V12.4414C10.7143 13.121 10.1648 13.6719 9.48701 13.6719H2.66883C1.99103 13.6719 1.44156 13.121 1.44156 12.4414V2.67578ZM2.66883 0C1.19488 0 0 1.19799 0 2.67578V12.4414C0 13.9192 1.19488 15.1172 2.66883 15.1172H5.84416V17.3242C5.84416 18.802 7.03903 20 8.51299 20H15.3312C16.8051 20 18 18.802 18 17.3242V7.55859C18 6.0808 16.8051 4.88281 15.3312 4.88281H12.1558V2.67578C12.1558 1.19799 10.961 0 9.48701 0H2.66883ZM16.5584 17.3242C16.5584 18.0038 16.009 18.5547 15.3312 18.5547H8.51299C7.83518 18.5547 7.28571 18.0038 7.28571 17.3242V15.1172H9.48701C10.961 15.1172 12.1558 13.9192 12.1558 12.4414V6.32812H15.3312C16.009 6.32812 16.5584 6.87902 16.5584 7.55859V17.3242Z" fill="#232A3D"/>
</svg>
