<svg width="24" height="24" viewBox="0 0 24 24" fill="none" xmlns="http://www.w3.org/2000/svg">
<path fill-rule="evenodd" clip-rule="evenodd" d="M11.1459 12.2688L3.42453 5.36585H20.5755L12.8541 12.2688C12.3686 12.7029 11.6314 12.7029 11.1459 12.2688ZM21.625 17.8537V6.26513L13.774 13.2841C12.7655 14.1857 11.2345 14.1857 10.226 13.2841L2.375 6.26513V17.8537C2.375 18.2847 2.72678 18.6341 3.16071 18.6341H20.8393C21.2732 18.6341 21.625 18.2847 21.625 17.8537ZM3.16071 4C1.96738 4 1 4.96095 1 6.14634V17.8537C1 19.039 1.96738 20 3.16071 20H20.8393C22.0326 20 23 19.039 23 17.8537V6.14634C23 4.96095 22.0326 4 20.8393 4H3.16071Z" fill="#232A3D"/>
</svg>
