<svg width="22" height="16" viewBox="0 0 22 16" fill="none" xmlns="http://www.w3.org/2000/svg">
<path fill-rule="evenodd" clip-rule="evenodd" d="M10.1459 8.26884L2.42453 1.36585H19.5755L11.8541 8.26884C11.3686 8.70294 10.6314 8.70294 10.1459 8.26884ZM20.625 13.8537V2.26513L12.774 9.28407C11.7655 10.1857 10.2345 10.1857 9.22605 9.28407L1.375 2.26513V13.8537C1.375 14.2847 1.72678 14.6341 2.16071 14.6341H19.8393C20.2732 14.6341 20.625 14.2847 20.625 13.8537ZM2.16071 0C0.967385 0 0 0.96095 0 2.14634V13.8537C0 15.039 0.967384 16 2.16071 16H19.8393C21.0326 16 22 15.039 22 13.8537V2.14634C22 0.96095 21.0326 0 19.8393 0H2.16071Z" fill="#232A3D"/>
</svg>
