<svg width="20" height="20" viewBox="0 0 20 20" fill="none" xmlns="http://www.w3.org/2000/svg">
<path fill-rule="evenodd" clip-rule="evenodd" d="M12.8964 9.84952L19.6453 2.30334C20.4395 1.41522 19.8132 0 18.6259 0H1.37412C0.186776 0 -0.439545 1.41522 0.354746 2.30335L7.10363 9.84952C7.26552 10.0305 7.3551 10.2654 7.3551 10.509V18.6171C7.3551 19.9079 8.95893 20.4923 9.78009 19.5007L12.327 16.425C12.5324 16.177 12.6449 15.8643 12.6449 15.5415V10.509C12.6449 10.2654 12.7345 10.0305 12.8964 9.84952ZM8.12301 8.92628L1.37412 1.38011L18.6259 1.3801L11.877 8.92628C11.4885 9.36072 11.2735 9.9245 11.2735 10.509L11.2735 15.5415L8.72653 18.6171L8.72653 10.509C8.72653 9.9245 8.51154 9.36072 8.12301 8.92628Z" fill="#232A3D"/>
</svg>
