<svg width="18" height="18" viewBox="0 0 18 18" fill="none" xmlns="http://www.w3.org/2000/svg">
<path fill-rule="evenodd" clip-rule="evenodd" d="M1.13904 7.79278C0.51939 7.84927 0 8.35276 0 9C0 9.64724 0.51939 10.1507 1.13904 10.2072C3.10019 10.386 4.67045 11.082 5.79422 12.2058C6.91798 13.3295 7.614 14.8998 7.79278 16.861C7.84927 17.4806 8.35276 18 9 18C9.64722 18 10.1508 17.4806 10.2072 16.8609C10.3858 14.8974 11.0814 13.3164 12.2045 12.1868C13.3272 11.0576 14.8954 10.3609 16.8534 10.1987C17.4749 10.1472 18 9.64457 18 8.99489C18 8.35054 17.483 7.84914 16.8659 7.79329C14.9009 7.61546 13.3187 6.9201 12.1883 5.79696C11.0582 4.67417 10.361 3.10542 10.1987 1.14659C10.1472 0.525063 9.64457 0 8.99489 0C8.35052 0 7.84919 0.517023 7.79324 1.13402C7.61526 3.09668 6.91953 4.66816 5.79566 5.79278C4.67179 6.91739 3.10102 7.61392 1.13904 7.79278ZM6.82621 11.1738C5.75217 10.0997 4.38445 9.37399 2.80191 9C4.38534 8.6258 5.75369 7.89944 6.828 6.82443C7.89202 5.75969 8.61398 4.40658 8.99048 2.84183C9.36101 4.41175 10.0878 5.76736 11.1596 6.83229C12.2289 7.89467 13.5886 8.61517 15.1562 8.99095C13.588 9.36141 12.2337 10.0874 11.1695 11.1578C10.0971 12.2365 9.37282 13.6109 8.99955 15.1962C8.62542 13.6145 7.89983 12.2474 6.82621 11.1738Z" fill="#232A3D"/>
</svg>
