<svg width="24" height="24" viewBox="0 0 24 24" fill="none" xmlns="http://www.w3.org/2000/svg">
<path fill-rule="evenodd" clip-rule="evenodd" d="M13.7014 15.9021V22H17.8371C19.584 22 21 20.58 21 18.8286V10.4336C21 9.4989 20.5888 8.61177 19.8761 8.00917L13.6195 2.71883C13.1437 2.24598 12.5733 1.99923 11.9926 2C11.4123 2.00078 10.8465 2.24885 10.3799 2.71943L4.1239 8.00917C3.41123 8.61177 3 9.49891 3 10.4336V18.8286C3 20.58 4.41596 22 6.16286 22H10.2986V15.9021C10.2986 14.9597 11.0604 14.1959 12 14.1959C12.9396 14.1959 13.7014 14.9597 13.7014 15.9021ZM12.5944 3.76323L12.6291 3.79792L18.9339 9.12924C19.3173 9.4534 19.5386 9.93068 19.5386 10.4336V18.8286C19.5386 19.771 18.7767 20.5348 17.8371 20.5348H15.1629V15.9021C15.1629 14.1506 13.7469 12.7307 12 12.7307C10.2531 12.7307 8.83714 14.1506 8.83714 15.9021V20.5348H6.16286C5.2233 20.5348 4.46145 19.771 4.46145 18.8286V10.4336C4.46145 9.93069 4.68271 9.45341 5.06609 9.12924L11.3715 3.79797L11.4124 3.75648C11.64 3.52509 11.8467 3.46542 11.9946 3.46523C12.1428 3.46503 12.356 3.52461 12.5944 3.76323Z" fill="currentColor"/>
</svg>
