<svg width="18" height="20" viewBox="0 0 18 20" fill="none" xmlns="http://www.w3.org/2000/svg">
<path fill-rule="evenodd" clip-rule="evenodd" d="M10.7014 13.9021V20H14.8371C16.584 20 18 18.58 18 16.8286V8.4336C18 7.4989 17.5888 6.61177 16.8761 6.00917L10.6195 0.718835C10.1437 0.245979 9.57327 -0.000766651 8.99265 1.78937e-06C8.41227 0.000777176 7.84651 0.248851 7.37991 0.719431L1.1239 6.00917C0.411229 6.61177 0 7.49891 0 8.43362V16.8286C0 18.58 1.41596 20 3.16286 20H7.29858V13.9021C7.29858 12.9597 8.06043 12.1959 9 12.1959C9.93956 12.1959 10.7014 12.9597 10.7014 13.9021ZM9.59443 1.76323L9.6291 1.79792L15.9339 7.12924C16.3173 7.4534 16.5386 7.93068 16.5386 8.4336V16.8286C16.5386 17.771 15.7767 18.5348 14.8371 18.5348H12.1629V13.9021C12.1629 12.1506 10.7469 10.7307 9 10.7307C7.2531 10.7307 5.83714 12.1506 5.83714 13.9021V18.5348H3.16286C2.2233 18.5348 1.46145 17.771 1.46145 16.8286V8.43362C1.46145 7.93069 1.68271 7.45341 2.06609 7.12924L8.37155 1.79797L8.41236 1.75648C8.63999 1.52509 8.84674 1.46542 8.99459 1.46523C9.14284 1.46503 9.356 1.52461 9.59443 1.76323Z" fill="#232A3D"/>
</svg>
