<svg width="20" height="16" viewBox="0 0 20 16" fill="none" xmlns="http://www.w3.org/2000/svg">
<path fill-rule="evenodd" clip-rule="evenodd" d="M13.9216 7.21951C15.1128 7.21951 16.0784 6.25856 16.0784 5.07317C16.0784 3.88778 15.1128 2.92683 13.9216 2.92683C12.7304 2.92683 11.7647 3.88778 11.7647 5.07317C11.7647 6.25856 12.7304 7.21951 13.9216 7.21951ZM14.7059 5.07317C14.7059 5.50422 14.3547 5.85366 13.9216 5.85366C13.4884 5.85366 13.1373 5.50422 13.1373 5.07317C13.1373 4.64212 13.4884 4.29268 13.9216 4.29268C14.3547 4.29268 14.7059 4.64212 14.7059 5.07317Z" fill="#232A3D"/>
<path fill-rule="evenodd" clip-rule="evenodd" d="M3.13725 0C1.4046 0 0 1.39775 0 3.12195V12.878C0 14.6023 1.4046 16 3.13725 16H16.8627C18.5954 16 20 14.6023 20 12.878V3.12195C20 1.39775 18.5954 0 16.8627 0H3.13725ZM14.902 7.72405L11.9608 10.6509L5.09804 3.82162L1.37255 7.52893V3.12195C1.37255 2.15209 2.16263 1.36585 3.13725 1.36585H16.8627C17.8374 1.36585 18.6274 2.15209 18.6274 3.12195V11.4314L14.902 7.72405ZM11.9608 12.5825L14.902 9.65566L18.5738 13.3096C18.3806 14.0708 17.6876 14.6341 16.8627 14.6341H3.13725C2.16263 14.6341 1.37255 13.8479 1.37255 12.878V9.46054L5.09804 5.75322L11.9608 12.5825Z" fill="#232A3D"/>
</svg>
