<svg width="24" height="24" viewBox="0 0 24 24" fill="none" xmlns="http://www.w3.org/2000/svg">
<path d="M12 9.32432C12.403 9.32432 12.7297 8.99761 12.7297 8.59459C12.7297 8.19158 12.403 7.86486 12 7.86486C11.597 7.86486 11.2703 8.19158 11.2703 8.59459C11.2703 8.99761 11.597 9.32432 12 9.32432Z" fill="#232A3D"/>
<path d="M12 10.8108C11.597 10.8108 11.2703 11.1375 11.2703 11.5405V15.4054C11.2703 15.8084 11.597 16.1351 12 16.1351C12.403 16.1351 12.7297 15.8084 12.7297 15.4054V11.5405C12.7297 11.1375 12.403 10.8108 12 10.8108Z" fill="#232A3D"/>
<path fill-rule="evenodd" clip-rule="evenodd" d="M12 21C16.9706 21 21 16.9706 21 12C21 7.02944 16.9706 3 12 3C7.02944 3 3 7.02944 3 12C3 16.9706 7.02944 21 12 21ZM19.5405 12C19.5405 16.1645 16.1645 19.5405 12 19.5405C7.83547 19.5405 4.45946 16.1645 4.45946 12C4.45946 7.83547 7.83547 4.45946 12 4.45946C16.1645 4.45946 19.5405 7.83547 19.5405 12Z" fill="#232A3D"/>
</svg>
