<svg width="18" height="18" viewBox="0 0 18 18" fill="none" xmlns="http://www.w3.org/2000/svg">
<path d="M9 6.32432C9.40302 6.32432 9.72973 5.99761 9.72973 5.59459C9.72973 5.19158 9.40302 4.86486 9 4.86486C8.59698 4.86486 8.27027 5.19158 8.27027 5.59459C8.27027 5.99761 8.59698 6.32432 9 6.32432Z" fill="#232A3D"/>
<path d="M9 7.81081C8.59698 7.81081 8.27027 8.13752 8.27027 8.54054V12.4054C8.27027 12.8084 8.59698 13.1351 9 13.1351C9.40302 13.1351 9.72973 12.8084 9.72973 12.4054V8.54054C9.72973 8.13752 9.40302 7.81081 9 7.81081Z" fill="#232A3D"/>
<path fill-rule="evenodd" clip-rule="evenodd" d="M9 18C13.9706 18 18 13.9706 18 9C18 4.02944 13.9706 0 9 0C4.02944 0 0 4.02944 0 9C0 13.9706 4.02944 18 9 18ZM16.5405 9C16.5405 13.1645 13.1645 16.5405 9 16.5405C4.83547 16.5405 1.45946 13.1645 1.45946 9C1.45946 4.83547 4.83547 1.45946 9 1.45946C13.1645 1.45946 16.5405 4.83547 16.5405 9Z" fill="#232A3D"/>
</svg>
