<svg width="16" height="22" viewBox="0 0 16 22" fill="none" xmlns="http://www.w3.org/2000/svg">
<path fill-rule="evenodd" clip-rule="evenodd" d="M7.27273 14.9112V17.1111H8.72727V14.9112C9.02133 14.6884 9.21212 14.3335 9.21212 13.9333C9.21212 13.2583 8.66944 12.7111 8 12.7111C7.33056 12.7111 6.78788 13.2583 6.78788 13.9333C6.78788 14.3335 6.97867 14.6884 7.27273 14.9112ZM13.0909 5.13333C13.0909 2.29827 10.8116 0 8 0C5.18837 0 2.90909 2.29827 2.90909 5.13333V7.82222H2.18182C0.976833 7.82222 0 8.8072 0 10.0222V19.8C0 21.015 0.976833 22 2.18182 22H13.8182C15.0232 22 16 21.015 16 19.8V10.0222C16 8.8072 15.0232 7.82222 13.8182 7.82222H13.0909V5.13333ZM1.45455 10.0222C1.45455 9.61721 1.78016 9.28889 2.18182 9.28889H13.8182C14.2198 9.28889 14.5455 9.61721 14.5455 10.0222V19.8C14.5455 20.205 14.2198 20.5333 13.8182 20.5333H2.18182C1.78016 20.5333 1.45455 20.205 1.45455 19.8V10.0222ZM11.6364 5.13333V7.82222H4.36364V5.13333C4.36364 3.10829 5.99169 1.46667 8 1.46667C10.0083 1.46667 11.6364 3.10829 11.6364 5.13333Z" fill="#232A3D"/>
</svg>
