<svg width="20" height="20" viewBox="0 0 20 20" fill="none" xmlns="http://www.w3.org/2000/svg">
<path d="M10.0833 18.6274C8.57989 18.6274 7.36111 17.3984 7.36111 15.8824V15.6863H6V15.8824C6 18.1565 7.82817 20 10.0833 20H15.9167C18.1718 20 20 18.1565 20 15.8824V4.11765C20 1.84353 18.1718 0 15.9167 0H10.0833C7.82817 0 6 1.84353 6 4.11765V4.31372H7.36111V4.11765C7.36111 2.60157 8.57989 1.37255 10.0833 1.37255H15.9167C17.4201 1.37255 18.6389 2.60157 18.6389 4.11765V15.8824C18.6389 17.3984 17.4201 18.6274 15.9167 18.6274H10.0833Z" fill="#232A3D"/>
<path d="M6.4053 6.19362C6.14259 5.93546 5.71666 5.93546 5.45395 6.19362C5.19124 6.45179 5.19124 6.87036 5.45395 7.12852L7.70324 9.33893H0.672705C0.30118 9.33893 0 9.6349 0 10C0 10.3651 0.301181 10.6611 0.672705 10.6611H7.70324L5.45395 12.8715C5.19124 13.1296 5.19124 13.5482 5.45395 13.8064C5.71665 14.0645 6.14259 14.0645 6.40529 13.8064L9.80297 10.4674C10.0657 10.2093 10.0657 9.79072 9.80297 9.53255L6.4053 6.19362Z" fill="#232A3D"/>
</svg>
