<svg width="24" height="24" viewBox="0 0 24 24" fill="none" xmlns="http://www.w3.org/2000/svg">
<path d="M12.0833 20.6274C10.5799 20.6274 9.36111 19.3984 9.36111 17.8824V17.6863H8V17.8824C8 20.1565 9.82817 22 12.0833 22H17.9167C20.1718 22 22 20.1565 22 17.8824V6.11765C22 3.84353 20.1718 2 17.9167 2H12.0833C9.82817 2 8 3.84353 8 6.11765V6.31372H9.36111V6.11765C9.36111 4.60157 10.5799 3.37255 12.0833 3.37255H17.9167C19.4201 3.37255 20.6389 4.60157 20.6389 6.11765V17.8824C20.6389 19.3984 19.4201 20.6274 17.9167 20.6274H12.0833Z" fill="#232A3D"/>
<path d="M8.4053 8.19362C8.14259 7.93546 7.71666 7.93546 7.45395 8.19362C7.19124 8.45179 7.19124 8.87036 7.45395 9.12852L9.70324 11.3389H2.67271C2.30118 11.3389 2 11.6349 2 12C2 12.3651 2.30118 12.6611 2.67271 12.6611H9.70324L7.45395 14.8715C7.19124 15.1296 7.19124 15.5482 7.45395 15.8064C7.71665 16.0645 8.14259 16.0645 8.40529 15.8064L11.803 12.4674C12.0657 12.2093 12.0657 11.7907 11.803 11.5326L8.4053 8.19362Z" fill="#232A3D"/>
</svg>
