<svg width="20" height="20" viewBox="0 0 20 20" fill="none" xmlns="http://www.w3.org/2000/svg">
<path d="M9.91667 18.6274C11.4201 18.6274 12.6389 17.3984 12.6389 15.8824V15.6863H14V15.8824C14 18.1565 12.1718 20 9.91667 20H4.08333C1.82817 20 0 18.1565 0 15.8824V4.11765C0 1.84353 1.82817 0 4.08333 0H9.91667C12.1718 0 14 1.84353 14 4.11765V4.31372H12.6389V4.11765C12.6389 2.60157 11.4201 1.37255 9.91667 1.37255H4.08333C2.57989 1.37255 1.36111 2.60157 1.36111 4.11765V15.8824C1.36111 17.3984 2.57989 18.6274 4.08333 18.6274H9.91667Z" fill="#232A3D"/>
<path d="M16.4053 13.8064C16.1426 14.0645 15.7167 14.0645 15.4539 13.8064C15.1912 13.5482 15.1912 13.1296 15.4539 12.8715L17.7032 10.6611H10.6727C10.3012 10.6611 10 10.3651 10 10C10 9.6349 10.3012 9.33893 10.6727 9.33893L17.7032 9.33893L15.4539 7.12852C15.1912 6.87036 15.1912 6.45179 15.4539 6.19362C15.7167 5.93546 16.1426 5.93546 16.4053 6.19362L19.803 9.53255C20.0657 9.79072 20.0657 10.2093 19.803 10.4674L16.4053 13.8064Z" fill="#232A3D"/>
</svg>
