<svg width="24" height="24" viewBox="0 0 24 24" fill="none" xmlns="http://www.w3.org/2000/svg">
<path d="M11.9167 20.6274C13.4201 20.6274 14.6389 19.3984 14.6389 17.8824V17.6863H16V17.8824C16 20.1565 14.1718 22 11.9167 22H6.08333C3.82817 22 2 20.1565 2 17.8824V6.11765C2 3.84353 3.82817 2 6.08333 2H11.9167C14.1718 2 16 3.84353 16 6.11765V6.31372H14.6389V6.11765C14.6389 4.60157 13.4201 3.37255 11.9167 3.37255H6.08333C4.57989 3.37255 3.36111 4.60157 3.36111 6.11765V17.8824C3.36111 19.3984 4.57989 20.6274 6.08333 20.6274H11.9167Z" fill="currentColor"/>
<path d="M18.4053 15.8064C18.1426 16.0645 17.7167 16.0645 17.4539 15.8064C17.1912 15.5482 17.1912 15.1296 17.4539 14.8715L19.7032 12.6611H12.6727C12.3012 12.6611 12 12.3651 12 12C12 11.6349 12.3012 11.3389 12.6727 11.3389L19.7032 11.3389L17.4539 9.12852C17.1912 8.87036 17.1912 8.45179 17.4539 8.19362C17.7167 7.93546 18.1426 7.93546 18.4053 8.19362L21.803 11.5325C22.0657 11.7907 22.0657 12.2093 21.803 12.4674L18.4053 15.8064Z" fill="currentColor"/>
</svg>
