<svg width="18" height="18" viewBox="0 0 18 18" fill="none" xmlns="http://www.w3.org/2000/svg">
<path fill-rule="evenodd" clip-rule="evenodd" d="M5.03814 3.93734L15.2139 0.127266C15.9147 -0.136512 16.608 0.0275104 17.129 0.455515C17.6513 0.884538 18 1.57901 18 2.37062V11.6865C18 13.3394 16.4614 14.4709 15.1047 13.8848L7.93927 11.2119L8.7276 15.5471C8.95984 16.8243 7.97855 18 6.68024 18C5.67455 18 4.81278 17.2809 4.63288 16.2915L3.51242 10.1297H1.62071C0.725605 10.1297 0 9.40417 0 8.50921V5.55785C0 4.66288 0.725605 3.93734 1.62071 3.93734H5.03814ZM6.19314 4.86468V9.20135L15.5852 12.7049L15.6076 12.715C15.7895 12.7943 16.0706 12.7618 16.3012 12.6035C16.5394 12.4399 16.7264 12.1424 16.7264 11.6865V2.37062C16.7264 1.94155 16.5424 1.62004 16.3254 1.44344C16.1168 1.27366 15.887 1.23459 15.6627 1.319L15.6612 1.31959L6.19314 4.86468ZM7.47453 15.7749L6.55059 10.6939L5.03824 10.1297H4.80691L5.88595 16.0637C5.95575 16.4476 6.29009 16.7266 6.68024 16.7266C7.18391 16.7266 7.56464 16.2705 7.47453 15.7749ZM4.91953 8.85628V5.21078H1.62071C1.42902 5.21078 1.27361 5.36615 1.27361 5.55785V8.50921C1.27361 8.7009 1.42902 8.85628 1.62071 8.85628H4.91953Z" fill="#232A3D"/>
</svg>
