<svg width="3" height="16" viewBox="0 0 3 16" fill="none" xmlns="http://www.w3.org/2000/svg">
<path d="M3 1.5C3 2.32843 2.32843 3 1.5 3C0.671573 3 0 2.32843 0 1.5C0 0.671573 0.671573 0 1.5 0C2.32843 0 3 0.671573 3 1.5Z" fill="#232A3D"/>
<path d="M3 14.5C3 15.3284 2.32843 16 1.5 16C0.671573 16 0 15.3284 0 14.5C0 13.6716 0.671573 13 1.5 13C2.32843 13 3 13.6716 3 14.5Z" fill="#232A3D"/>
<path d="M1.5 9.5C2.32843 9.5 3 8.82843 3 8C3 7.17157 2.32843 6.5 1.5 6.5C0.671573 6.5 0 7.17157 0 8C0 8.82843 0.671573 9.5 1.5 9.5Z" fill="#232A3D"/>
</svg>
