<svg width="14" height="20" viewBox="0 0 14 20" fill="none" xmlns="http://www.w3.org/2000/svg">
<path fill-rule="evenodd" clip-rule="evenodd" d="M7.72414 14.1463H13.003C13.5536 14.1463 14 13.6953 14 13.1389C14 11.0587 12.8216 9.25715 11.1034 8.37772V2.7447C11.6941 2.23352 12.069 1.47377 12.069 0.625663C12.069 0.280119 11.7917 0 11.4498 0H2.55022C2.20826 0 1.93103 0.280119 1.93103 0.625663C1.93103 1.47377 2.30592 2.23352 2.89655 2.7447V8.37772C1.17843 9.25715 0 11.0587 0 13.1389C0 13.6953 0.446372 14.1463 0.997001 14.1463H6.27586V19.2683C6.27586 19.6724 6.60007 20 7 20C7.39993 20 7.72414 19.6724 7.72414 19.2683V14.1463ZM10.1172 1.6698L9.65517 2.036V9.30421L10.3485 9.63363C11.5228 10.1915 12.3686 11.3318 12.5254 12.6829L1.47456 12.6829C1.63142 11.3318 2.4772 10.1915 3.65147 9.63363L4.34483 9.30422V2.036L3.8828 1.6698C3.80579 1.60876 3.73587 1.53951 3.67431 1.46341H10.3257C10.2641 1.53951 10.1942 1.60876 10.1172 1.6698Z" fill="#232A3D"/>
</svg>
