<svg width="16" height="16" viewBox="0 0 16 16" fill="none" xmlns="http://www.w3.org/2000/svg">
<path fill-rule="evenodd" clip-rule="evenodd" d="M8.68293 0.682927C8.68293 0.305756 8.37717 0 8 0C7.62283 0 7.31707 0.305757 7.31707 0.682927V7.31707H0.682927C0.305757 7.31707 0 7.62283 0 8C0 8.37717 0.305757 8.68293 0.682927 8.68293H7.31707V15.3171C7.31707 15.6942 7.62283 16 8 16C8.37717 16 8.68292 15.6942 8.68292 15.3171V8.68293H15.3171C15.6942 8.68293 16 8.37717 16 8C16 7.62283 15.6942 7.31707 15.3171 7.31707H8.68293V0.682927Z" fill="#232A3D"/>
</svg>
