<svg width="18" height="18" viewBox="0 0 18 18" fill="none" xmlns="http://www.w3.org/2000/svg">
<path d="M9 11.6757C8.59698 11.6757 8.27027 12.0024 8.27027 12.4054C8.27027 12.8084 8.59698 13.1351 9 13.1351C9.40302 13.1351 9.72973 12.8084 9.72973 12.4054C9.72973 12.0024 9.40302 11.6757 9 11.6757Z" fill="#232A3D"/>
<path d="M9 10.1892C9.40302 10.1892 9.72973 9.86248 9.72973 9.45946L9.72973 5.59459C9.72973 5.19158 9.40302 4.86486 9 4.86486C8.59698 4.86486 8.27027 5.19158 8.27027 5.59459L8.27027 9.45946C8.27027 9.86248 8.59698 10.1892 9 10.1892Z" fill="#232A3D"/>
<path fill-rule="evenodd" clip-rule="evenodd" d="M9 -7.86805e-07C4.02944 -1.22135e-06 1.22135e-06 4.02944 7.86805e-07 9C3.52265e-07 13.9706 4.02944 18 9 18C13.9706 18 18 13.9706 18 9C18 4.02944 13.9706 -3.52265e-07 9 -7.86805e-07ZM1.45946 9C1.45946 4.83547 4.83548 1.45946 9 1.45946C13.1645 1.45946 16.5405 4.83547 16.5405 9C16.5405 13.1645 13.1645 16.5405 9 16.5405C4.83547 16.5405 1.45946 13.1645 1.45946 9Z" fill="#232A3D"/>
</svg>
