<svg width="24" height="24" viewBox="0 0 24 24" fill="none" xmlns="http://www.w3.org/2000/svg">
<path d="M12 14.6757C11.597 14.6757 11.2703 15.0024 11.2703 15.4054C11.2703 15.8084 11.597 16.1351 12 16.1351C12.403 16.1351 12.7297 15.8084 12.7297 15.4054C12.7297 15.0024 12.403 14.6757 12 14.6757Z" fill="#232A3D"/>
<path d="M12 13.1892C12.403 13.1892 12.7297 12.8625 12.7297 12.4595L12.7297 8.59459C12.7297 8.19158 12.403 7.86486 12 7.86486C11.597 7.86486 11.2703 8.19158 11.2703 8.59459L11.2703 12.4595C11.2703 12.8625 11.597 13.1892 12 13.1892Z" fill="currentColor"/>
<path fill-rule="evenodd" clip-rule="evenodd" d="M12 3C7.02944 3 3 7.02944 3 12C3 16.9706 7.02944 21 12 21C16.9706 21 21 16.9706 21 12C21 7.02944 16.9706 3 12 3ZM4.45946 12C4.45946 7.83547 7.83548 4.45946 12 4.45946C16.1645 4.45946 19.5405 7.83547 19.5405 12C19.5405 16.1645 16.1645 19.5405 12 19.5405C7.83547 19.5405 4.45946 16.1645 4.45946 12Z" fill="currentColor"/>
</svg>
