<svg width="18" height="18" viewBox="0 0 18 18" fill="none" xmlns="http://www.w3.org/2000/svg">
<path fill-rule="evenodd" clip-rule="evenodd" d="M7.58869 15.1773C9.43567 15.1773 11.1289 14.5173 12.4448 13.4204L16.8223 17.7979C17.0917 18.0674 17.5285 18.0674 17.7979 17.7979C18.0674 17.5285 18.0674 17.0917 17.7979 16.8223L13.4204 12.4448C14.5173 11.1289 15.1774 9.43567 15.1774 7.58867C15.1774 3.39756 11.7798 0 7.58869 0C3.39757 0 0 3.39756 0 7.58867C0 11.7798 3.39757 15.1773 7.58869 15.1773ZM13.7976 7.58867C13.7976 11.0178 11.0178 13.7976 7.58869 13.7976C4.1596 13.7976 1.37976 11.0178 1.37976 7.58867C1.37976 4.15958 4.1596 1.37976 7.58869 1.37976C11.0178 1.37976 13.7976 4.15958 13.7976 7.58867Z" fill="#232A3D"/>
</svg>
