<svg width="21" height="21" viewBox="0 0 21 21" fill="none" xmlns="http://www.w3.org/2000/svg">
<path fill-rule="evenodd" clip-rule="evenodd" d="M11.9106 9.08955L8.71394 12.8189L12.0718 20.2807C12.5198 21.2763 13.9498 21.2271 14.3283 20.203L20.8826 2.46792C21.4243 1.00216 19.9978 -0.424255 18.5321 0.117436L0.796969 6.67172C-0.227081 7.05017 -0.276331 8.4802 0.719253 8.92821L8.1812 12.2861L11.9106 9.08955ZM10.9845 8.00905L7.94117 10.6175L1.75627 7.83434L19.0254 1.45228C19.3511 1.3319 19.6681 1.64888 19.5477 1.97461L13.1657 19.2437L10.3825 13.0589L12.9911 10.0157C14.1348 8.68146 12.3184 6.86572 10.9845 8.00905Z" fill="#232A3D"/>
</svg>
