<svg width="20" height="20" viewBox="0 0 20 20" fill="none" xmlns="http://www.w3.org/2000/svg">
<path fill-rule="evenodd" clip-rule="evenodd" d="M10.0001 14.1292C12.2788 14.1292 14.1261 12.2805 14.1261 10C14.1261 7.71953 12.2788 5.87084 10.0001 5.87084C7.72139 5.87084 5.87413 7.71953 5.87413 10C5.87413 12.2805 7.72139 14.1292 10.0001 14.1292ZM12.7182 10C12.7182 11.5023 11.5013 12.7202 10.0001 12.7202C8.49896 12.7202 7.28204 11.5023 7.28204 10C7.28204 8.4977 8.49896 7.27984 10.0001 7.27984C11.5013 7.27984 12.7182 8.4977 12.7182 10Z" fill="#232A3D"/>
<path fill-rule="evenodd" clip-rule="evenodd" d="M18.9283 8.18208C19.5304 7.6525 19.6753 6.77119 19.2745 6.07643L18.0325 3.92358C17.6317 3.22881 16.7966 2.91376 16.0373 3.17084L14.838 3.57686C14.3174 3.18356 13.7474 2.85213 13.139 2.59354L12.891 1.35292C12.7338 0.566253 12.0436 0 11.242 0H8.75801C7.95639 0 7.2662 0.566254 7.10899 1.35292L6.86104 2.59363C6.25263 2.85221 5.6827 3.18363 5.16216 3.57691L3.96273 3.17084C3.20338 2.91376 2.36827 3.22881 1.96746 3.92358L0.725467 6.07643C0.324654 6.77119 0.469574 7.6525 1.07171 8.18208L2.02252 9.01832C1.98338 9.34015 1.96324 9.66777 1.96324 10C1.96324 10.3322 1.98337 10.6598 2.02251 10.9816L1.07162 11.8179C0.469481 12.3475 0.324562 13.2288 0.725373 13.9236L1.96737 16.0764C2.36818 16.7712 3.20328 17.0862 3.96264 16.8292L5.16214 16.4231C5.68268 16.8164 6.25262 17.1478 6.86104 17.4064L7.10899 18.6471C7.2662 19.4337 7.95639 20 8.75801 20H11.242C12.0436 20 12.7338 19.4337 12.891 18.6471L13.139 17.4065C13.7474 17.1479 14.3174 16.8164 14.838 16.4231L16.0374 16.8292C16.7967 17.0862 17.6318 16.7712 18.0326 16.0764L19.2746 13.9236C19.6754 13.2288 19.5305 12.3475 18.9284 11.8179L17.9777 10.9818C18.0168 10.6599 18.037 10.3323 18.037 10C18.037 9.66772 18.0168 9.34005 17.9777 9.01817L18.9283 8.18208ZM7.49973 3.85374L8.09341 3.61156L8.48957 1.62925C8.51516 1.50118 8.62752 1.409 8.75801 1.409H11.242C11.3725 1.409 11.4848 1.50118 11.5104 1.62924L11.9066 3.6115L12.5003 3.85367C13.0647 4.08388 13.5908 4.39004 14.0659 4.75983L14.5725 5.15418L16.4884 4.50554C16.6121 4.46369 16.748 4.51498 16.8133 4.62808L18.0552 6.78093C18.1205 6.89403 18.0969 7.0375 17.9989 7.12371L16.4813 8.45847L16.5678 9.09345C16.6081 9.38929 16.629 9.69188 16.629 10C16.629 10.3081 16.6081 10.6107 16.5678 10.9065L16.4813 11.5415L17.999 12.8763C18.097 12.9625 18.1206 13.106 18.0553 13.2191L16.8133 15.3719C16.7481 15.485 16.6121 15.5363 16.4885 15.4945L14.5725 14.8458L14.0659 15.2402C13.5908 15.61 13.0647 15.9161 12.5003 16.1463L11.9066 16.3885L11.5104 18.3708C11.4848 18.4988 11.3725 18.591 11.242 18.591H8.75801C8.62752 18.591 8.51516 18.4988 8.48957 18.3708L8.09341 16.3884L7.49973 16.1463C6.93536 15.916 6.40927 15.6099 5.93424 15.2401L5.42763 14.8458L3.51147 15.4945C3.38785 15.5363 3.2519 15.485 3.18666 15.3719L1.94467 13.2191C1.87942 13.106 1.90301 12.9625 2.00103 12.8763L3.5189 11.5413L3.43236 10.9064C3.39206 10.6106 3.37115 10.3081 3.37115 10C3.37115 9.69192 3.39206 9.38938 3.43237 9.09357L3.51891 8.45861L2.00113 7.12371C1.9031 7.0375 1.87951 6.89403 1.94476 6.78093L3.18675 4.62808C3.252 4.51498 3.38795 4.46369 3.51156 4.50554L5.42765 5.15423L5.93426 4.75987C6.40929 4.3901 6.93537 4.08395 7.49973 3.85374Z" fill="#232A3D"/>
</svg>
