<svg width="22" height="18" viewBox="0 0 22 18" fill="none" xmlns="http://www.w3.org/2000/svg">
<path fill-rule="evenodd" clip-rule="evenodd" d="M16.9394 0.642193C15.9516 -0.601716 13.9158 0.0824318 13.9158 1.65829L13.9158 3.02224C11.2356 3.13881 8.26369 3.94497 5.72495 5.95791C2.95401 8.15495 0.771318 11.7324 0.00643052 17.2263C-0.0395639 17.5567 0.16524 17.8712 0.490493 17.9696C0.815746 18.068 1.16593 17.9214 1.31817 17.6232C3.52069 13.3087 7.83262 12.2349 13.9158 12.1626L13.9158 13.5074C13.9158 15.0832 15.9516 15.7674 16.9394 14.5235L21.6441 8.59894C22.1187 8.00129 22.1187 7.1644 21.6441 6.56674L16.9394 0.642193ZM15.3074 1.65829C15.3074 1.3802 15.6666 1.25947 15.841 1.47898L20.5456 7.40353C20.6294 7.509 20.6294 7.65668 20.5456 7.76215L15.841 13.6867C15.6666 13.9062 15.3074 13.7855 15.3074 13.5074L15.3074 11.4771C15.3074 11.1007 14.9959 10.7956 14.6116 10.7956C9.45559 10.7956 4.9882 11.4037 2.026 14.3177C3.00669 10.8656 4.67774 8.54183 6.60053 7.01727C9.05838 5.06847 11.9981 4.37011 14.6116 4.37011C14.9959 4.37011 15.3074 4.06499 15.3074 3.68862L15.3074 1.65829Z" fill="#232A3D"/>
</svg>
