<svg width="20" height="20" viewBox="0 0 20 20" fill="none" xmlns="http://www.w3.org/2000/svg">
<path fill-rule="evenodd" clip-rule="evenodd" d="M10 3.17376L8.49427 6.7747C8.1548 7.58652 7.38726 8.14121 6.50613 8.21147L2.5978 8.52313L5.57554 11.0603C6.24686 11.6323 6.54004 12.5298 6.33494 13.385L5.42519 17.1786L8.77127 15.1457C9.52563 14.6874 10.4744 14.6874 11.2287 15.1457L14.5748 17.1786L13.6651 13.385C13.46 12.5298 13.7531 11.6323 14.4245 11.0603L17.4022 8.52313L13.4939 8.21147C12.6127 8.14121 11.8452 7.58652 11.5057 6.7747L10 3.17376ZM10.757 1.00236C10.477 0.332549 9.52303 0.332548 9.24295 1.00235L7.0748 6.18745C6.95673 6.46983 6.68976 6.66276 6.38328 6.6872L0.755557 7.13597C0.0285732 7.19394 -0.26621 8.09635 0.287675 8.56829L4.57541 12.2216C4.80891 12.4206 4.91088 12.7328 4.83954 13.0302L3.52957 18.4927C3.36035 19.1983 4.1321 19.756 4.7545 19.3779L9.57261 16.4507C9.835 16.2913 10.165 16.2913 10.4274 16.4507L15.2455 19.3779C15.8679 19.756 16.6396 19.1983 16.4704 18.4927L15.1605 13.0302C15.0891 12.7328 15.1911 12.4206 15.4246 12.2216L19.7123 8.56829C20.2662 8.09635 19.9714 7.19394 19.2444 7.13597L13.6167 6.6872C13.3102 6.66276 13.0433 6.46983 12.9252 6.18745L10.757 1.00236Z" fill="#232A3D"/>
</svg>
