<svg width="24" height="24" viewBox="0 0 24 24" fill="none" xmlns="http://www.w3.org/2000/svg">
<path fill-rule="evenodd" clip-rule="evenodd" d="M3.5382 5.60015C3.22905 6.63212 2.94397 7.6197 2.72389 8.38212C2.59849 8.8165 2.49424 9.17765 2.41858 9.43258C2.14917 10.3404 1.86494 11.7538 2.07014 12.9852C2.17451 13.6114 2.41595 14.2527 2.91282 14.7393C3.42211 15.238 4.12087 15.4971 4.98461 15.4971L9.19935 15.4971C9.22996 15.4971 9.25543 15.4985 9.27631 15.5006C9.27029 15.5236 9.24714 15.5966 9.19319 15.7643C9.14313 15.9199 9.07717 16.1255 9.00512 16.3659C8.86136 16.8456 8.69088 17.4717 8.56653 18.1443C8.44297 18.8126 8.3598 19.5535 8.40479 20.2564C8.4493 20.9519 8.62413 21.6854 9.08652 22.2619C9.3686 22.6135 9.72509 22.9044 10.1711 22.9809C10.6397 23.0611 11.0396 22.878 11.3359 22.6355C11.6229 22.4006 11.8596 22.0758 12.0572 21.7403C12.2589 21.3977 12.4436 21.0024 12.6129 20.5902C12.9508 19.7674 13.2506 18.8183 13.5092 17.9758C13.5472 17.8519 13.5842 17.7307 13.6203 17.6125C13.8363 16.9052 14.0153 16.3197 14.1684 15.9384C14.313 15.5783 14.6088 15.1702 15.0216 14.7431C15.4277 14.323 15.9114 13.9207 16.3847 13.5672C16.7574 13.2889 17.1166 13.0461 17.415 12.8541C17.7893 13.5308 18.5022 13.9885 19.3206 13.9885L19.8149 13.9885C21.0217 13.9885 22 12.9933 22 11.7658L22 4.72556C22 3.498 21.0217 2.50286 19.815 2.50286L19.3206 2.50286C18.7968 2.50286 18.3157 2.69058 17.9394 3.0032L17.9127 2.99474C17.821 2.96572 17.6883 2.92484 17.5204 2.87606C17.1848 2.77856 16.7076 2.64916 16.1355 2.51987C14.9967 2.26247 13.4585 2 11.9053 2L7.83055 2C6.36109 2 5.36435 2.40983 4.68396 3.16903C4.05677 3.86888 3.7805 4.79124 3.5477 5.56846L3.5382 5.60015ZM10.3481 16.7824C10.4157 16.5567 10.4779 16.3627 10.5275 16.2086L10.5425 16.1618C10.5812 16.0418 10.6214 15.9171 10.6403 15.8392C10.7188 15.5148 10.733 15.0602 10.466 14.663C10.1795 14.2368 9.70217 14.0689 9.19935 14.0689L4.98461 14.0689C4.40729 14.0689 4.08372 13.9035 3.88648 13.7103C3.6769 13.5051 3.52791 13.1878 3.45437 12.7465C3.30369 11.8424 3.5138 10.6838 3.76264 9.84533C3.84469 9.56886 3.9513 9.19941 4.07744 8.76233L4.07861 8.75825C4.29572 8.00589 4.57116 7.0514 4.8812 6.01647C5.13486 5.16974 5.33596 4.56139 5.72151 4.13118C6.0627 3.75045 6.63246 3.42815 7.83055 3.42815L11.9053 3.42815C13.317 3.42815 14.7449 3.66855 15.831 3.91403C16.3714 4.03617 16.8221 4.15844 17.1355 4.24952L17.1355 11.3531C17.0665 11.3948 16.9892 11.4422 16.9049 11.4948C16.5491 11.7168 16.065 12.0343 15.5539 12.416C15.0445 12.7964 14.497 13.2488 14.0205 13.7418C13.5506 14.2279 13.1124 14.7913 12.8687 15.3984C12.6901 15.8431 12.4905 16.4974 12.2802 17.1864L12.2767 17.198C12.2411 17.3145 12.2052 17.4321 12.169 17.5503C11.9098 18.395 11.6271 19.2856 11.3174 20.0397C11.1628 20.4161 11.0074 20.7437 10.8527 21.0064C10.6938 21.2764 10.5579 21.4393 10.4558 21.5228C10.4261 21.5471 10.4054 21.5599 10.393 21.5664C10.3628 21.5506 10.2885 21.5013 10.1743 21.359C9.97067 21.1051 9.84069 20.7089 9.80579 20.1637C9.77136 19.6258 9.83418 19.0148 9.94631 18.4083C10.0576 17.8062 10.2125 17.2347 10.3481 16.7824ZM18.5395 11.7658L18.5395 4.72556C18.5395 4.28675 18.8892 3.93102 19.3206 3.93102L19.815 3.93102C20.2463 3.93102 20.596 4.28675 20.596 4.72556L20.596 11.7658C20.596 12.2046 20.2463 12.5603 19.8149 12.5603L19.3206 12.5603C18.8892 12.5603 18.5395 12.2046 18.5395 11.7658Z" fill="#232A3D"/>
</svg>
