<svg width="20" height="21" viewBox="0 0 20 21" fill="none" xmlns="http://www.w3.org/2000/svg">
<path fill-rule="evenodd" clip-rule="evenodd" d="M18.4618 17.3998C18.771 16.3679 19.056 15.3803 19.2761 14.6179C19.4015 14.1835 19.5058 13.8223 19.5814 13.5674C19.8508 12.6596 20.1351 11.2462 19.9299 10.0148C19.8255 9.38861 19.5841 8.74728 19.0872 8.26075C18.5779 7.76204 17.8791 7.50293 17.0154 7.50293H12.8006C12.77 7.50293 12.7446 7.50152 12.7237 7.49945C12.7297 7.47645 12.7529 7.40337 12.8068 7.23573C12.8569 7.08014 12.9228 6.8745 12.9949 6.63409C13.1386 6.15436 13.3091 5.52827 13.4335 4.85566C13.557 4.18735 13.6402 3.44648 13.5952 2.74355C13.5507 2.04812 13.3759 1.31458 12.9135 0.738142C12.6314 0.386489 12.2749 0.095577 11.8289 0.0191476C11.3603 -0.061147 10.9604 0.122034 10.6641 0.364496C10.3771 0.599357 10.1404 0.924229 9.94281 1.25975C9.74113 1.60229 9.5564 1.99761 9.38714 2.40976C9.04922 3.23262 8.74936 4.18167 8.49084 5.02418C8.45283 5.14805 8.41578 5.26935 8.37971 5.38747C8.16369 6.09478 7.98468 6.68025 7.83158 7.06159C7.687 7.42173 7.39119 7.82983 6.97839 8.25688C6.57231 8.677 6.08857 9.07932 5.61527 9.43277C5.24263 9.71106 4.88344 9.95389 4.58499 10.1459C4.21067 9.46915 3.49777 9.01155 2.67941 9.01155H2.18505C0.978281 9.01155 0 10.0067 0 11.2342V18.2744C0 19.502 0.97828 20.4971 2.18505 20.4971H2.67941C3.2032 20.4971 3.6843 20.3094 4.06065 19.9968L4.08729 20.0053C4.17902 20.0343 4.31175 20.0752 4.47963 20.1239C4.81519 20.2214 5.29243 20.3508 5.86446 20.4801C7.00328 20.7375 8.54146 21 10.0947 21H14.1695C15.6389 21 16.6357 20.5902 17.316 19.831C17.9432 19.1311 18.2195 18.2088 18.4523 17.4315L18.4618 17.3998ZM11.6519 6.21764C11.5843 6.44326 11.5221 6.63728 11.4725 6.79144L11.4575 6.83815C11.4188 6.9582 11.3786 7.08293 11.3597 7.16083C11.2812 7.48517 11.267 7.93981 11.534 8.33697C11.8205 8.76323 12.2978 8.93109 12.8006 8.93109H17.0154C17.5927 8.93109 17.9163 9.09652 18.1135 9.28965C18.3231 9.49488 18.4721 9.81223 18.5456 10.2535C18.6963 11.1576 18.4862 12.3162 18.2374 13.1547C18.1553 13.4311 18.0487 13.8006 17.9226 14.2377L17.9214 14.2417C17.7043 14.9941 17.4288 15.9486 17.1188 16.9835C16.8651 17.8303 16.664 18.4386 16.2785 18.8688C15.9373 19.2495 15.3675 19.5718 14.1695 19.5718H10.0947C8.68301 19.5718 7.25506 19.3314 6.16899 19.086C5.62859 18.9638 5.17792 18.8416 4.86446 18.7505V11.6469C4.93347 11.6052 5.01078 11.5578 5.09507 11.5052C5.45092 11.2832 5.93502 10.9657 6.44613 10.584C6.95549 10.2036 7.50296 9.75118 7.97949 9.25818C8.44937 8.77207 8.88758 8.20869 9.13134 7.60155C9.30986 7.1569 9.50953 6.5026 9.71978 5.81362L9.72334 5.80197C9.75887 5.68553 9.79477 5.5679 9.83104 5.44971C10.0902 4.605 10.3729 3.71443 10.6826 2.96026C10.8372 2.58389 10.9926 2.25634 11.1473 1.99355C11.3062 1.72363 11.4421 1.56074 11.5442 1.47724C11.5739 1.45291 11.5946 1.44012 11.607 1.43359C11.6372 1.44945 11.7115 1.49872 11.8257 1.64104C12.0293 1.8949 12.1593 2.29109 12.1942 2.83634C12.2286 3.3742 12.1658 3.98525 12.0537 4.5917C11.9424 5.19383 11.7875 5.7653 11.6519 6.21764ZM3.46049 11.2342V18.2744C3.46049 18.7133 3.11079 19.069 2.67941 19.069H2.18505C1.75367 19.069 1.40397 18.7133 1.40397 18.2744V11.2342C1.40397 10.7954 1.75367 10.4397 2.18505 10.4397H2.67941C3.11079 10.4397 3.46049 10.7954 3.46049 11.2342Z" fill="#232A3D"/>
</svg>
