<svg width="24" height="24" viewBox="0 0 24 24" fill="none" xmlns="http://www.w3.org/2000/svg">
<path fill-rule="evenodd" clip-rule="evenodd" d="M20.4618 18.3998C20.771 17.3679 21.056 16.3803 21.2761 15.6179C21.4015 15.1835 21.5058 14.8223 21.5814 14.5674C21.8508 13.6596 22.1351 12.2462 21.9299 11.0148C21.8255 10.3886 21.5841 9.74728 21.0872 9.26075C20.5779 8.76204 19.8791 8.50293 19.0154 8.50293H14.8006C14.77 8.50293 14.7446 8.50152 14.7237 8.49945C14.7297 8.47645 14.7529 8.40337 14.8068 8.23573C14.8569 8.08014 14.9228 7.8745 14.9949 7.63409C15.1386 7.15436 15.3091 6.52827 15.4335 5.85566C15.557 5.18735 15.6402 4.44648 15.5952 3.74355C15.5507 3.04812 15.3759 2.31458 14.9135 1.73814C14.6314 1.38649 14.2749 1.09558 13.8289 1.01915C13.3603 0.938853 12.9604 1.12203 12.6641 1.3645C12.3771 1.59936 12.1404 1.92423 11.9428 2.25975C11.7411 2.60229 11.5564 2.99761 11.3871 3.40976C11.0492 4.23262 10.7494 5.18167 10.4908 6.02418C10.4528 6.14805 10.4158 6.26935 10.3797 6.38747C10.1637 7.09478 9.98468 7.68025 9.83158 8.06159C9.687 8.42173 9.39119 8.82983 8.97839 9.25688C8.57231 9.677 8.08857 10.0793 7.61527 10.4328C7.24263 10.7111 6.88344 10.9539 6.58499 11.1459C6.21067 10.4692 5.49777 10.0115 4.67941 10.0115H4.18505C2.97828 10.0115 2 11.0067 2 12.2342V19.2744C2 20.502 2.97828 21.4971 4.18505 21.4971H4.67941C5.2032 21.4971 5.6843 21.3094 6.06065 20.9968L6.08729 21.0053C6.17902 21.0343 6.31175 21.0752 6.47963 21.1239C6.81519 21.2214 7.29243 21.3508 7.86446 21.4801C9.00328 21.7375 10.5415 22 12.0947 22H16.1695C17.6389 22 18.6357 21.5902 19.316 20.831C19.9432 20.1311 20.2195 19.2088 20.4523 18.4315L20.4618 18.3998ZM13.6519 7.21764C13.5843 7.44326 13.5221 7.63728 13.4725 7.79144L13.4575 7.83815C13.4188 7.9582 13.3786 8.08293 13.3597 8.16083C13.2812 8.48517 13.267 8.93981 13.534 9.33697C13.8205 9.76323 14.2978 9.93109 14.8006 9.93109H19.0154C19.5927 9.93109 19.9163 10.0965 20.1135 10.2897C20.3231 10.4949 20.4721 10.8122 20.5456 11.2535C20.6963 12.1576 20.4862 13.3162 20.2374 14.1547C20.1553 14.4311 20.0487 14.8006 19.9226 15.2377L19.9214 15.2417C19.7043 15.9941 19.4288 16.9486 19.1188 17.9835C18.8651 18.8303 18.664 19.4386 18.2785 19.8688C17.9373 20.2495 17.3675 20.5718 16.1695 20.5718H12.0947C10.683 20.5718 9.25506 20.3314 8.16899 20.086C7.62859 19.9638 7.17792 19.8416 6.86446 19.7505V12.6469C6.93347 12.6052 7.01078 12.5578 7.09507 12.5052C7.45092 12.2832 7.93502 11.9657 8.44613 11.584C8.95549 11.2036 9.50296 10.7512 9.97949 10.2582C10.4494 9.77207 10.8876 9.20869 11.1313 8.60155C11.3099 8.1569 11.5095 7.5026 11.7198 6.81362L11.7233 6.80197C11.7589 6.68553 11.7948 6.5679 11.831 6.44971C12.0902 5.605 12.3729 4.71443 12.6826 3.96026C12.8372 3.58389 12.9926 3.25634 13.1473 2.99355C13.3062 2.72363 13.4421 2.56074 13.5442 2.47724C13.5739 2.45291 13.5946 2.44012 13.607 2.43359C13.6372 2.44945 13.7115 2.49872 13.8257 2.64104C14.0293 2.8949 14.1593 3.29109 14.1942 3.83634C14.2286 4.3742 14.1658 4.98525 14.0537 5.5917C13.9424 6.19383 13.7875 6.7653 13.6519 7.21764ZM5.46049 12.2342V19.2744C5.46049 19.7133 5.11079 20.069 4.67941 20.069H4.18505C3.75367 20.069 3.40397 19.7133 3.40397 19.2744V12.2342C3.40397 11.7954 3.75367 11.4397 4.18505 11.4397H4.67941C5.11079 11.4397 5.46049 11.7954 5.46049 12.2342Z" fill="currentColor"/>
</svg>
