<svg width="20" height="21" viewBox="0 0 20 21" fill="none" xmlns="http://www.w3.org/2000/svg">
<path fill-rule="evenodd" clip-rule="evenodd" d="M1.5382 3.60015C1.22905 4.63212 0.943967 5.6197 0.723886 6.38212C0.598493 6.8165 0.494243 7.17765 0.418582 7.43258C0.149167 8.34039 -0.135056 9.75385 0.0701436 10.9852C0.17451 11.6114 0.41595 12.2527 0.912818 12.7393C1.42211 13.238 2.12087 13.4971 2.98461 13.4971L7.19935 13.4971C7.22996 13.4971 7.25543 13.4985 7.27631 13.5006C7.27029 13.5236 7.24714 13.5966 7.19319 13.7643C7.14313 13.9199 7.07717 14.1255 7.00512 14.3659C6.86136 14.8456 6.69088 15.4717 6.56653 16.1443C6.44297 16.8126 6.3598 17.5535 6.40479 18.2564C6.4493 18.9519 6.62413 19.6854 7.08652 20.2619C7.3686 20.6135 7.72509 20.9044 8.17109 20.9809C8.63966 21.0611 9.03962 20.878 9.33589 20.6355C9.62287 20.4006 9.85965 20.0758 10.0572 19.7403C10.2589 19.3977 10.4436 19.0024 10.6129 18.5902C10.9508 17.7674 11.2506 16.8183 11.5092 15.9758C11.5472 15.8519 11.5842 15.7307 11.6203 15.6125C11.8363 14.9052 12.0153 14.3197 12.1684 13.9384C12.313 13.5783 12.6088 13.1702 13.0216 12.7431C13.4277 12.323 13.9114 11.9207 14.3847 11.5672C14.7574 11.2889 15.1166 11.0461 15.415 10.8541C15.7893 11.5308 16.5022 11.9885 17.3206 11.9885L17.8149 11.9885C19.0217 11.9885 20 10.9933 20 9.76576L20 2.72556C20 1.498 19.0217 0.502863 17.815 0.502863L17.3206 0.502863C16.7968 0.502863 16.3157 0.690582 15.9394 1.0032L15.9127 0.994743C15.821 0.965723 15.6883 0.924837 15.5204 0.876056C15.1848 0.778558 14.7076 0.649164 14.1355 0.51987C12.9967 0.262473 11.4585 -7.46718e-07 9.90526 -8.8251e-07L5.83055 -1.23873e-06C4.36109 -1.3672e-06 3.36435 0.409831 2.68396 1.16903C2.05677 1.86888 1.7805 2.79124 1.5477 3.56846L1.5382 3.60015ZM8.34808 14.7824C8.41569 14.5567 8.47789 14.3627 8.5275 14.2086L8.54254 14.1618C8.58123 14.0418 8.62142 13.9171 8.64028 13.8392C8.7188 13.5148 8.73303 13.0602 8.46603 12.663C8.17945 12.2368 7.70217 12.0689 7.19935 12.0689L2.98461 12.0689C2.40729 12.0689 2.08372 11.9035 1.88648 11.7103C1.6769 11.5051 1.52791 11.1878 1.45437 10.7465C1.30369 9.84236 1.5138 8.68383 1.76264 7.84533C1.84469 7.56886 1.9513 7.19941 2.07744 6.76233L2.07861 6.75825C2.29572 6.00589 2.57116 5.0514 2.8812 4.01647C3.13486 3.16974 3.33596 2.56139 3.72151 2.13118C4.0627 1.75045 4.63246 1.42815 5.83055 1.42815L9.90526 1.42815C11.317 1.42815 12.7449 1.66855 13.831 1.91403C14.3714 2.03617 14.8221 2.15844 15.1355 2.24952L15.1355 9.35312C15.0665 9.39483 14.9892 9.44218 14.9049 9.49477C14.5491 9.71675 14.065 10.0343 13.5539 10.416C13.0445 10.7964 12.497 11.2488 12.0205 11.7418C11.5506 12.2279 11.1124 12.7913 10.8687 13.3984C10.6901 13.8431 10.4905 14.4974 10.2802 15.1864L10.2767 15.198C10.2411 15.3145 10.2052 15.4321 10.169 15.5503C9.90977 16.395 9.6271 17.2856 9.31738 18.0397C9.16282 18.4161 9.00745 18.7437 8.85272 19.0064C8.6938 19.2764 8.55786 19.4393 8.45582 19.5228C8.4261 19.5471 8.40542 19.5599 8.39303 19.5664C8.36284 19.5506 8.28847 19.5013 8.17431 19.359C7.97067 19.1051 7.84069 18.7089 7.80579 18.1637C7.77136 17.6258 7.83418 17.0148 7.94631 16.4083C8.05763 15.8062 8.21252 15.2347 8.34808 14.7824ZM16.5395 9.76576L16.5395 2.72556C16.5395 2.28675 16.8892 1.93102 17.3206 1.93102L17.815 1.93102C18.2463 1.93102 18.596 2.28675 18.596 2.72556L18.596 9.76576C18.596 10.2046 18.2463 10.5603 17.8149 10.5603L17.3206 10.5603C16.8892 10.5603 16.5395 10.2046 16.5395 9.76576Z" fill="#232A3D"/>
</svg>
