<svg width="18" height="20" viewBox="0 0 18 20" fill="none" xmlns="http://www.w3.org/2000/svg">
<path fill-rule="evenodd" clip-rule="evenodd" d="M9.00002 8.29382C11.2884 8.29382 13.1434 6.43719 13.1434 4.14691C13.1434 1.85663 11.2884 0 9.00002 0C6.71168 0 4.85661 1.85663 4.85661 4.14691C4.85661 6.43719 6.71168 8.29382 9.00002 8.29382ZM11.6794 4.14691C11.6794 5.62797 10.4798 6.8286 9.00002 6.8286C7.52021 6.8286 6.32059 5.62797 6.32059 4.14691C6.32059 2.66586 7.52021 1.46522 9.00002 1.46522C10.4798 1.46522 11.6794 2.66586 11.6794 4.14691Z" fill="#232A3D"/>
<path fill-rule="evenodd" clip-rule="evenodd" d="M0.696451 15.8501C0.274885 16.9514 0.565507 18.001 1.24698 18.7642C1.92346 19.5218 2.98415 20 4.12654 20H13.8735C15.0158 20 16.0765 19.5218 16.753 18.7642C17.4345 18.001 17.7251 16.9514 17.3035 15.8501C15.9371 12.2803 12.7434 9.75514 9 9.75514C5.25664 9.75514 2.06285 12.2803 0.696451 15.8501ZM9 11.2204C12.0446 11.2204 14.752 13.2797 15.9365 16.3742C16.1404 16.907 16.0195 17.3868 15.6614 17.7879C15.2777 18.2176 14.6221 18.5348 13.8735 18.5348H4.12654C3.37788 18.5348 2.72231 18.2176 2.3386 17.7879C1.98052 17.3868 1.8596 16.907 2.06355 16.3742C3.24801 13.2797 5.95543 11.2204 9 11.2204Z" fill="#232A3D"/>
</svg>
