<svg width="24" height="24" viewBox="0 0 24 24" fill="none" xmlns="http://www.w3.org/2000/svg">
<path fill-rule="evenodd" clip-rule="evenodd" d="M12 10.2938C14.2884 10.2938 16.1434 8.43719 16.1434 6.14691C16.1434 3.85663 14.2884 2 12 2C9.71168 2 7.85661 3.85663 7.85661 6.14691C7.85661 8.43719 9.71168 10.2938 12 10.2938ZM14.6794 6.14691C14.6794 7.62797 13.4798 8.8286 12 8.8286C10.5202 8.8286 9.32059 7.62797 9.32059 6.14691C9.32059 4.66586 10.5202 3.46522 12 3.46522C13.4798 3.46522 14.6794 4.66586 14.6794 6.14691Z" fill="currentColor"/>
<path fill-rule="evenodd" clip-rule="evenodd" d="M3.69645 17.8501C3.27488 18.9514 3.56551 20.001 4.24698 20.7642C4.92346 21.5218 5.98415 22 7.12654 22H16.8735C18.0158 22 19.0765 21.5218 19.753 20.7642C20.4345 20.001 20.7251 18.9514 20.3035 17.8501C18.9371 14.2803 15.7434 11.7551 12 11.7551C8.25664 11.7551 5.06285 14.2803 3.69645 17.8501ZM12 13.2204C15.0446 13.2204 17.752 15.2797 18.9365 18.3742C19.1404 18.907 19.0195 19.3868 18.6614 19.7879C18.2777 20.2176 17.6221 20.5348 16.8735 20.5348H7.12654C6.37788 20.5348 5.72231 20.2176 5.3386 19.7879C4.98052 19.3868 4.8596 18.907 5.06355 18.3742C6.24801 15.2797 8.95543 13.2204 12 13.2204Z" fill="currentColor"/>
</svg>
