<svg width="22" height="14" viewBox="0 0 22 14" fill="none" xmlns="http://www.w3.org/2000/svg">
<path fill-rule="evenodd" clip-rule="evenodd" d="M11 11.0833C13.2746 11.0833 15.1185 9.25516 15.1185 7C15.1185 4.74484 13.2746 2.91667 11 2.91667C8.7254 2.91667 6.88146 4.74484 6.88146 7C6.88146 9.25516 8.7254 11.0833 11 11.0833ZM13.7457 7C13.7457 8.50344 12.5164 9.72222 11 9.72222C9.4836 9.72222 8.25431 8.50344 8.25431 7C8.25431 5.49656 9.4836 4.27778 11 4.27778C12.5164 4.27778 13.7457 5.49656 13.7457 7Z" fill="#232A3D"/>
<path fill-rule="evenodd" clip-rule="evenodd" d="M21.9669 7.0766L22 7L21.9669 6.9234L21.9661 6.92149L21.9641 6.91711L21.957 6.90113C21.9508 6.88731 21.9416 6.86725 21.9294 6.84134C21.905 6.78954 21.8686 6.71438 21.8196 6.6192C21.7217 6.42888 21.5735 6.15832 21.3711 5.83429C20.9667 5.18651 20.3448 4.32326 19.4738 3.45973C17.7302 1.73105 14.9862 0 11 0C7.0138 0 4.26977 1.73105 2.52619 3.45973C1.65522 4.32326 1.0333 5.18651 0.628842 5.83429C0.426519 6.15832 0.278338 6.42888 0.180395 6.6192C0.131416 6.71438 0.0949775 6.78954 0.070595 6.84134C0.0584031 6.86725 0.0492234 6.88731 0.042995 6.90113L0.0358572 6.91711L0.033934 6.92149L0.0333811 6.92276L0 7L0.0330999 7.0766L0.033934 7.07851L0.0358572 7.08289L0.042995 7.09887C0.0492234 7.11269 0.0584031 7.13276 0.070595 7.15866C0.0949775 7.21046 0.131416 7.28562 0.180395 7.3808C0.278338 7.57112 0.426519 7.84168 0.628842 8.16572C1.0333 8.81349 1.65522 9.67675 2.52619 10.5403C4.26977 12.2689 7.0138 14 11 14C14.9862 14 17.7302 12.2689 19.4738 10.5403C20.3448 9.67675 20.9667 8.81349 21.3711 8.16572C21.5735 7.84168 21.7217 7.57112 21.8196 7.3808C21.8686 7.28562 21.905 7.21046 21.9294 7.15866C21.9416 7.13276 21.9508 7.11269 21.957 7.09887L21.9641 7.08289L21.9661 7.07851L21.9669 7.0766ZM1.79612 7.44929C1.69058 7.28026 1.60234 7.12878 1.53073 7C1.60234 6.87121 1.69058 6.71974 1.79612 6.55071C2.15794 5.97124 2.71656 5.19589 3.49694 4.42218C5.0478 2.88458 7.46024 1.36111 11 1.36111C14.5398 1.36111 16.9522 2.88458 18.503 4.42218C19.2834 5.19589 19.8421 5.97124 20.2039 6.55071C20.3094 6.71974 20.3976 6.87121 20.4693 7C20.3976 7.12878 20.3094 7.28026 20.2039 7.44929C19.8421 8.02876 19.2834 8.80411 18.503 9.57782C16.9522 11.1154 14.5398 12.6389 11 12.6389C7.46024 12.6389 5.0478 11.1154 3.49694 9.57782C2.71656 8.80411 2.15794 8.02876 1.79612 7.44929Z" fill="#232A3D"/>
</svg>
