<svg width="24" height="24" viewBox="0 0 24 24" fill="none" xmlns="http://www.w3.org/2000/svg">
<path fill-rule="evenodd" clip-rule="evenodd" d="M20.6464 6.54103C20.8417 6.34577 20.8417 6.02919 20.6464 5.83393L18.1661 3.35355C17.9708 3.15829 17.6542 3.15829 17.459 3.35355L4.6772 16.1353C4.62232 16.1902 4.58096 16.2571 4.55641 16.3308L3.31623 20.0513C3.18593 20.4422 3.5578 20.8141 3.94868 20.6838L7.66924 19.4436C7.74288 19.419 7.8098 19.3777 7.86468 19.3228L20.6464 6.54103ZM17.007 6.54103C16.8117 6.34577 16.8117 6.02919 17.007 5.83393L17.459 5.38195C17.6542 5.18669 17.9708 5.18669 18.1661 5.38195L18.6181 5.83393C18.8133 6.02919 18.8133 6.34577 18.6181 6.54103L18.1661 6.99301C17.9708 7.18827 17.6542 7.18827 17.459 6.99301L17.007 6.54103ZM6.89447 18.19C6.9681 18.1654 7.03502 18.1241 7.08991 18.0692L16.4448 8.71432C16.64 8.51905 16.64 8.20247 16.4448 8.00721L15.9928 7.55523C15.7975 7.35997 15.4809 7.35997 15.2857 7.55523L5.93082 16.9101C5.87593 16.965 5.83458 17.0319 5.81003 17.1055L5.58404 17.7835C5.45375 18.1744 5.82562 18.5463 6.2165 18.416L6.89447 18.19Z" fill="black"/>
</svg>
