<svg width="18" height="18" viewBox="0 0 18 18" fill="none" xmlns="http://www.w3.org/2000/svg">
<path fill-rule="evenodd" clip-rule="evenodd" d="M17.6464 3.54103C17.8417 3.34577 17.8417 3.02919 17.6464 2.83393L15.1661 0.353554C14.9708 0.158291 14.6542 0.158292 14.459 0.353554L1.6772 13.1353C1.62232 13.1902 1.58096 13.2571 1.55641 13.3308L0.316228 17.0513C0.185935 17.4422 0.557803 17.8141 0.948682 17.6838L4.66924 16.4436C4.74288 16.419 4.8098 16.3777 4.86468 16.3228L17.6464 3.54103ZM14.007 3.54103C13.8117 3.34577 13.8117 3.02919 14.007 2.83393L14.459 2.38195C14.6542 2.18669 14.9708 2.18669 15.1661 2.38195L15.6181 2.83393C15.8133 3.02919 15.8133 3.34577 15.6181 3.54103L15.1661 3.99301C14.9708 4.18827 14.6542 4.18827 14.459 3.99301L14.007 3.54103ZM3.89447 15.19C3.9681 15.1654 4.03502 15.1241 4.08991 15.0692L13.4448 5.71432C13.64 5.51905 13.64 5.20247 13.4448 5.00721L12.9928 4.55523C12.7975 4.35997 12.4809 4.35997 12.2857 4.55523L2.93082 13.9101C2.87593 13.965 2.83458 14.0319 2.81003 14.1055L2.58404 14.7835C2.45375 15.1744 2.82562 15.5463 3.2165 15.416L3.89447 15.19Z" fill="black"/>
</svg>
