<svg width="21" height="14" viewBox="0 0 21 14" fill="none" xmlns="http://www.w3.org/2000/svg">
<path fill-rule="evenodd" clip-rule="evenodd" d="M3.96226 7C3.96226 8.68779 5.33709 10.0557 7.03279 10.0563H15.9481C18.7382 10.0563 21 7.80515 21 5.02817C21 2.25119 18.7382 0 15.9481 0H7.03302C3.14879 0 0 3.13401 0 7C0 10.866 3.14879 14 7.03302 14H15.4528C16.0546 14 16.5425 13.5144 16.5425 12.9155C16.5425 12.3165 16.0546 11.831 15.4528 11.831H7.03302C4.35235 11.831 2.17925 9.66808 2.17925 7C2.17925 4.33192 4.35235 2.16901 7.03302 2.16901H15.9481C17.5346 2.16901 18.8208 3.4491 18.8208 5.02817C18.8208 6.60724 17.5346 7.88732 15.9481 7.88732H7.03339C6.54024 7.88701 6.14151 7.48933 6.14151 7C6.14151 6.51067 6.54024 6.11299 7.03339 6.11268H15.4528C16.0546 6.11268 16.5425 5.62713 16.5425 5.02817C16.5425 4.42921 16.0546 3.94366 15.4528 3.94366H7.03279C5.33709 3.9443 3.96226 5.31221 3.96226 7Z" fill="#232A3D"/>
</svg>
