<svg width="24" height="24" viewBox="0 0 24 24" fill="none" xmlns="http://www.w3.org/2000/svg">
<path d="M13.7609 22V15.9216C13.7609 14.9469 12.9725 14.1569 12 14.1569C11.0275 14.1569 10.2391 14.9469 10.2391 15.9216V22H6.13043C4.40154 22 3 20.5954 3 18.8627V10.4258C3 9.5011 3.40705 8.6235 4.11242 8.02741L10.4049 2.70979C10.8662 2.24412 11.4233 2.00076 11.9927 2C12.5622 1.99925 13.1241 2.24126 13.5947 2.70931L19.8876 8.02741C20.593 8.6235 21 9.50109 21 10.4258V18.8627C21 20.5954 19.5985 22 17.8696 22H13.7609Z" fill="#232A3D"/>
</svg>
