<svg width="18" height="20" viewBox="0 0 18 20" fill="none" xmlns="http://www.w3.org/2000/svg">
<path d="M10.7609 20V13.9216C10.7609 12.9469 9.9725 12.1569 9 12.1569C8.0275 12.1569 7.23913 12.9469 7.23913 13.9216V20H3.13043C1.40154 20 0 18.5954 0 16.8627V8.42579C0 7.5011 0.407045 6.6235 1.11242 6.02741L7.40486 0.709795C7.86615 0.24412 8.42332 0.000761983 8.99267 1.75353e-06C9.56222 -0.000751624 10.1241 0.241262 10.5947 0.709314L16.8876 6.02741C17.593 6.6235 18 7.50109 18 8.42577V16.8627C18 18.5954 16.5985 20 14.8696 20H10.7609Z" fill="#232A3D"/>
</svg>
