<svg width="24" height="24" viewBox="0 0 24 24" fill="none" xmlns="http://www.w3.org/2000/svg">
<path d="M21.2761 15.6179C21.056 16.3803 20.771 17.3679 20.4618 18.3998L20.4523 18.4315C20.2195 19.2088 19.9432 20.1311 19.316 20.831C18.6357 21.5902 17.6389 22 16.1695 22H12.0947C10.5415 22 9.00328 21.7375 7.86446 21.4801C7.29243 21.3508 6.81519 21.2214 6.47963 21.1239C6.31175 21.0752 6.17902 21.0343 6.08729 21.0053L6.06065 20.9968C5.6843 21.3094 5.2032 21.4971 4.67941 21.4971H4.18505C2.97828 21.4971 2 20.502 2 19.2744V12.2342C2 11.0067 2.97828 10.0115 4.18505 10.0115H4.67941C5.49777 10.0115 6.21067 10.4692 6.58499 11.1459C6.88344 10.9539 7.24263 10.7111 7.61527 10.4328C8.08857 10.0793 8.57231 9.677 8.97839 9.25688C9.39119 8.82983 9.687 8.42173 9.83158 8.06159C9.98468 7.68025 10.1637 7.09478 10.3797 6.38747C10.4158 6.26935 10.4528 6.14805 10.4908 6.02418C10.7494 5.18166 11.0492 4.23262 11.3871 3.40976C11.5564 2.99761 11.7411 2.60229 11.9428 2.25975C12.1404 1.92423 12.3771 1.59936 12.6641 1.3645C12.9604 1.12203 13.3603 0.938853 13.8289 1.01915C14.2749 1.09558 14.6314 1.38649 14.9135 1.73814C15.3759 2.31458 15.5507 3.04812 15.5952 3.74355C15.6402 4.44648 15.557 5.18735 15.4335 5.85566C15.3091 6.52827 15.1386 7.15436 14.9949 7.63409C14.9228 7.8745 14.8569 8.08014 14.8068 8.23573C14.7529 8.40337 14.7297 8.47645 14.7237 8.49945C14.7446 8.50152 14.77 8.50293 14.8006 8.50293H19.0154C19.8791 8.50293 20.5779 8.76204 21.0872 9.26075C21.5841 9.74728 21.8255 10.3886 21.9299 11.0148C22.1351 12.2462 21.8508 13.6596 21.5814 14.5674C21.5058 14.8222 21.4017 15.1829 21.2764 15.6169L21.2761 15.6179Z" fill="currentColor"/>
</svg>
