<svg width="24" height="24" viewBox="0 0 24 24" fill="none" xmlns="http://www.w3.org/2000/svg">
<path d="M2.72389 8.38212C2.94397 7.6197 3.22905 6.63212 3.5382 5.60015L3.5477 5.56846C3.7805 4.79124 4.05677 3.86888 4.68396 3.16903C5.36435 2.40983 6.36109 2 7.83055 2L11.9053 2C13.4585 2 14.9967 2.26247 16.1355 2.51987C16.7076 2.64916 17.1848 2.77856 17.5204 2.87606C17.6883 2.92484 17.821 2.96572 17.9127 2.99474L17.9394 3.0032C18.3157 2.69058 18.7968 2.50286 19.3206 2.50286L19.815 2.50286C21.0217 2.50286 22 3.498 22 4.72556L22 11.7658C22 12.9933 21.0217 13.9885 19.8149 13.9885L19.3206 13.9885C18.5022 13.9885 17.7893 13.5308 17.415 12.8541C17.1166 13.0461 16.7574 13.2889 16.3847 13.5672C15.9114 13.9207 15.4277 14.323 15.0216 14.7431C14.6088 15.1702 14.313 15.5783 14.1684 15.9384C14.0153 16.3197 13.8363 16.9052 13.6203 17.6125C13.5842 17.7307 13.5472 17.8519 13.5092 17.9758C13.2506 18.8183 12.9508 19.7674 12.6129 20.5902C12.4436 21.0024 12.2589 21.3977 12.0572 21.7403C11.8596 22.0758 11.6229 22.4006 11.3359 22.6355C11.0396 22.878 10.6397 23.0611 10.1711 22.9809C9.72509 22.9044 9.3686 22.6135 9.08652 22.2619C8.62413 21.6854 8.4493 20.9519 8.40479 20.2564C8.3598 19.5535 8.44297 18.8126 8.56653 18.1443C8.69088 17.4717 8.86136 16.8456 9.00512 16.3659C9.07717 16.1255 9.14313 15.9199 9.19319 15.7643C9.24714 15.5966 9.27029 15.5236 9.27631 15.5006C9.25543 15.4985 9.22996 15.4971 9.19935 15.4971L4.98461 15.4971C4.12087 15.4971 3.42211 15.238 2.91282 14.7393C2.41595 14.2527 2.17451 13.6114 2.07014 12.9852C1.86494 11.7538 2.14917 10.3404 2.41858 9.43258C2.49418 9.17785 2.59833 8.81706 2.72359 8.38313L2.72389 8.38212Z" fill="#232A3D"/>
</svg>
