<svg width="24" height="24" viewBox="0 0 24 24" fill="none" xmlns="http://www.w3.org/2000/svg">
<path d="M15.6178 6.11765C15.6178 8.39176 13.7742 10.2353 11.5 10.2353C9.22582 10.2353 7.38222 8.39176 7.38222 6.11765C7.38222 3.84353 9.22582 2 11.5 2C13.7742 2 15.6178 3.84353 15.6178 6.11765Z" fill="#232A3D"/>
<path d="M3.73864 20.7747C3.06416 20.02 2.77767 18.9846 3.19427 17.8972C4.56251 14.3257 7.75849 11.8039 11.5 11.8039C15.2415 11.8039 18.4375 14.3257 19.8057 17.8972C20.2223 18.9846 19.9358 20.02 19.2614 20.7747C18.5909 21.5249 17.5378 22 16.4021 22H6.59786C5.46219 22 4.40909 21.5249 3.73864 20.7747Z" fill="#232A3D"/>
</svg>
